<svg width="64" height="64" viewBox="0 0 64 64" fill="none" xmlns="http://www.w3.org/2000/svg">
<g clip-path="url(#clip0_869_268)">
<path d="M38.6667 0H25.3333C17.2453 0 10.6667 6.57867 10.6667 14.6667V49.3333C10.6667 57.4213 17.2453 64 25.3333 64H38.6667C46.752 64 53.3333 57.4213 53.3333 49.3333V14.6667C53.3333 6.57867 46.752 0 38.6667 0ZM45.3333 49.3333C45.3333 53.008 42.344 56 38.6667 56H25.3333C21.6587 56 18.6667 53.008 18.6667 49.3333V14.6667C18.6667 10.992 21.6587 8 25.3333 8H38.6667C42.344 8 45.3333 10.992 45.3333 14.6667V49.3333ZM34.6667 50.6667H29.3333C27.8613 50.6667 26.6667 49.472 26.6667 48C26.6667 46.528 27.8613 45.3333 29.3333 45.3333H34.6667C36.1387 45.3333 37.3333 46.528 37.3333 48C37.3333 49.472 36.1387 50.6667 34.6667 50.6667Z" fill="#A08942"/>
</g>
<defs>
<clipPath id="clip0_869_268">
<rect width="64" height="64" fill="white"/>
</clipPath>
</defs>
</svg>
