<svg width="64" height="64" viewBox="0 0 64 64" fill="none" xmlns="http://www.w3.org/2000/svg">
<g clip-path="url(#clip0_869_265)">
<path d="M60.7253 29.6667C59 28.984 57.0267 29.3947 55.5387 30.504L52.92 32.608C52.04 28.9173 49.7733 25.7653 46.6907 23.7387C49.1413 21.216 50.6667 17.7867 50.6667 14C50.6667 6.28 44.3867 0 36.6667 0C32.7467 0 29.2107 1.62933 26.6667 4.232C24.1227 1.62933 20.5867 0 16.6667 0C8.94667 0 2.66667 6.28 2.66667 14C2.66667 17.7867 4.192 21.216 6.64267 23.7387C2.648 26.3627 0 30.8747 0 36V49.3333C0 57.4213 6.57867 64 14.6667 64H38.6667C45.5067 64 51.2533 59.2853 52.8667 52.9387L55.768 54.9733C56.68 55.6533 57.7573 56 58.8427 56C59.8933 56 60.952 55.6747 61.8747 55.016C63.2747 54.0187 64 52.3093 64 50.5893V34.464C64 32.3467 62.7307 30.4587 60.7253 29.664V29.6667ZM36.6667 8C39.976 8 42.6667 10.6907 42.6667 14C42.6667 17.3093 39.976 20 36.6667 20C33.3573 20 30.6667 17.3093 30.6667 14C30.6667 10.6907 33.3573 8 36.6667 8ZM16.6667 8C19.976 8 22.6667 10.6907 22.6667 14C22.6667 17.3093 19.976 20 16.6667 20C13.3573 20 10.6667 17.3093 10.6667 14C10.6667 10.6907 13.3573 8 16.6667 8ZM45.3333 49.3333C45.3333 53.008 42.3413 56 38.6667 56H14.6667C10.992 56 8 53.008 8 49.3333V36C8 32.3253 10.992 29.3333 14.6667 29.3333H38.6667C42.3413 29.3333 45.3333 32.3253 45.3333 36V49.3333Z" fill="#A08942"/>
</g>
<defs>
<clipPath id="clip0_869_265">
<rect width="64" height="64" fill="white"/>
</clipPath>
</defs>
</svg>
