<svg width="64" height="64" viewBox="0 0 64 64" fill="none" xmlns="http://www.w3.org/2000/svg">
<g clip-path="url(#clip0_869_261)">
<path d="M52 0H12C8.81849 0.00352914 5.76829 1.26894 3.51862 3.51862C1.26894 5.76829 0.00352914 8.81849 0 12L0 52C0.00352914 55.1815 1.26894 58.2317 3.51862 60.4814C5.76829 62.7311 8.81849 63.9965 12 64H52C55.1815 63.9965 58.2317 62.7311 60.4814 60.4814C62.7311 58.2317 63.9965 55.1815 64 52V12C63.9965 8.81849 62.7311 5.76829 60.4814 3.51862C58.2317 1.26894 55.1815 0.00352914 52 0ZM12 8H52C53.0609 8 54.0783 8.42143 54.8284 9.17157C55.5786 9.92172 56 10.9391 56 12V52C56.0007 52.5253 55.8974 53.0455 55.696 53.5307C55.4946 54.0158 55.1992 54.4563 54.8267 54.8267L31.5413 31.5413C29.541 29.5416 26.8284 28.4183 24 28.4183C21.1716 28.4183 18.459 29.5416 16.4587 31.5413L8 40V12C8 10.9391 8.42143 9.92172 9.17157 9.17157C9.92172 8.42143 10.9391 8 12 8Z" fill="#A08942"/>
<path d="M41.3333 26.6667C45.0152 26.6667 48 23.6819 48 20C48 16.3181 45.0152 13.3333 41.3333 13.3333C37.6514 13.3333 34.6667 16.3181 34.6667 20C34.6667 23.6819 37.6514 26.6667 41.3333 26.6667Z" fill="#A08942"/>
</g>
<defs>
<clipPath id="clip0_869_261">
<rect width="64" height="64" fill="white"/>
</clipPath>
</defs>
</svg>
