<svg width="100" height="100" viewBox="0 0 100 100" fill="none" xmlns="http://www.w3.org/2000/svg">
<path d="M60.0573 39.1226L32.7863 66.5786C32.608 66.3634 32.3766 66.1993 32.1153 66.1027L1.02174 54.7671C0.706045 54.651 0.436193 54.4351 0.25259 54.1517C0.0689869 53.8682 -0.0184882 53.5326 0.00326119 53.1949C0.0250106 52.8572 0.154814 52.5357 0.373238 52.2785C0.591662 52.0213 0.886955 51.8423 1.2149 51.7682L58.7916 38.8565C59.0091 38.8048 59.2352 38.8018 59.4539 38.8478C59.6726 38.8938 59.8786 38.9876 60.0573 39.1226Z" fill="white"/>
<path d="M60.645 40.7248L47.8202 98.7791C47.7465 99.1079 47.5693 99.4039 47.3151 99.6232C47.0609 99.8425 46.7431 99.9734 46.4091 99.9964C46.0751 100.019 45.7427 99.9333 45.4612 99.7509C45.1797 99.5684 44.9641 99.2994 44.8466 98.9838L33.0435 67.0499C32.9832 66.886 32.8955 66.7337 32.7843 66.5995L60.0553 39.1434C60.294 39.3223 60.4764 39.5665 60.581 39.8469C60.6855 40.1273 60.7078 40.432 60.645 40.7248Z" fill="white"/>
<path d="M99.9983 46.3236C99.8915 59.7472 93.8985 73.1195 83.6763 81.799C82.964 82.4731 82.1237 82.9954 81.2059 83.3343C80.2282 83.5953 79.1998 83.5953 78.2221 83.3343C75.9599 82.7689 73.9219 81.5243 72.3786 79.7658C70.8352 78.0072 69.8595 75.8178 69.5807 73.488C69.4212 72.4585 69.5736 71.4045 70.0179 70.4635C70.5481 69.6592 71.2262 68.9644 72.0156 68.4164C80.1486 61.6611 84.0321 50.0851 81.6024 39.7577C79.1726 29.4303 70.5567 20.8225 60.2532 18.4581C49.9496 16.0938 38.4973 20.0958 31.8587 28.3556C31.1217 29.2717 30.3897 30.2747 29.3172 30.72C28.5988 30.975 27.8307 31.0556 27.0755 30.9554C24.7342 30.7125 22.5217 29.7587 20.7314 28.2204C18.9411 26.6821 17.6577 24.6321 17.0515 22.3424C16.693 21.1342 16.7125 19.8442 17.1075 18.6475C17.4817 17.8209 17.9979 17.0672 18.6324 16.4213C24.8135 9.3846 32.3569 4.17485 41.4252 1.72351C43.8583 1.06477 46.3375 0.592597 48.8415 0.311045C56.3711 -0.570784 64.0006 0.429353 71.0548 3.22297C85.7502 9.14407 96.9128 23.1817 99.4391 38.9184C99.8333 41.3664 100.02 43.8437 99.9983 46.3236Z" fill="white"/>
</svg>
